<?xml version="1.0" encoding="utf-8"?>
<!-- Generator: Adobe Illustrator 21.1.0, SVG Export Plug-In . SVG Version: 6.00 Build 0)  -->
<svg version="1.1" id="Layer_1" xmlns="http://www.w3.org/2000/svg" xmlns:xlink="http://www.w3.org/1999/xlink" x="0px" y="0px"
	 viewBox="0 0 345.3 191.2" style="enable-background:new 0 0 345.3 191.2;" xml:space="preserve">
<g id="g2197" transform="translate(-1808.65,-1076.8045)">
	<path d="M1981.3,1267.9c-1.2,0-2.5-0.5-3.4-1.5l-168-181.9c-1.7-1.9-1.6-4.8,0.3-6.5c1.9-1.7,4.8-1.6,6.5,0.3l168,181.9
		c1.7,1.9,1.6,4.8-0.3,6.5C1983.6,1267.5,1982.4,1267.9,1981.3,1267.9z"/>
	<path d="M1981.3,1267.9c-1.1,0-2.3-0.4-3.1-1.2c-1.9-1.7-2-4.7-0.3-6.5l168-181.9c1.7-1.9,4.7-2,6.5-0.3s2,4.7,0.3,6.5l-168,181.9
		C1983.8,1267.4,1982.5,1267.9,1981.3,1267.9z"/>
</g>
</svg>
