<svg id="logo-telma" xmlns="http://www.w3.org/2000/svg" width="175" height="78.377" viewBox="0 0 175 78.377">
  <rect id="Rectangle_44" data-name="Rectangle 44" width="175" height="78.377" fill="#c9152f"/>
  <path id="Tracé_7" data-name="Tracé 7" d="M24.238,185.446H17.5V175.8h1.525v8.405h5.213Z" transform="translate(-11.294 -113.453)" fill="#fff"/>
  <path id="Tracé_8" data-name="Tracé 8" d="M43.425,179.843h4.752v1.241H43.425v3.121h5.568v1.241H41.9V175.8h7.093v1.241H43.425Z" transform="translate(-27.04 -113.453)" fill="#fff"/>
  <path id="Tracé_9" data-name="Tracé 9" d="M71.31,177.041v8.405H69.785v-8.405H66.7V175.8h7.731v1.241Z" transform="translate(-43.045 -113.453)" fill="#fff"/>
  <path id="Tracé_10" data-name="Tracé 10" d="M92.967,173.8l-.567,3.121.709.142,1.277-3.263Z" transform="translate(-59.63 -112.162)" fill="#fff"/>
  <path id="Tracé_11" data-name="Tracé 11" d="M108.48,177.044a7.748,7.748,0,0,0-2.837-.532c-1.6,0-2.412.461-2.412,1.383,0,2.341,5.887.851,5.887,4.469,0,1.88-1.56,2.908-4.291,2.908a7.828,7.828,0,0,1-3.227-.638l.248-1.206a7.935,7.935,0,0,0,2.873.532c1.844,0,2.8-.532,2.8-1.525,0-2.376-5.887-.851-5.887-4.469,0-1.809,1.419-2.766,3.972-2.766a7.926,7.926,0,0,1,3.121.638Z" transform="translate(-66.717 -113.065)" fill="#fff"/>
  <path id="Tracé_12" data-name="Tracé 12" d="M147.673,184.456a7.6,7.6,0,0,1-3.4.78c-3.369,0-4.469-2.092-4.469-4.965s1.1-5.072,4.433-5.072a8.1,8.1,0,0,1,3.156.638l-.248,1.206a6.849,6.849,0,0,0-2.66-.532c-2.163,0-3.121,1.312-3.121,3.795s.993,3.653,3.121,3.653a5.709,5.709,0,0,0,1.7-.284v-3.263h1.49Z" transform="translate(-91.804 -113.065)" fill="#fff"/>
  <path id="Tracé_13" data-name="Tracé 13" d="M172.895,180.694c1.49,0,2.2-.6,2.2-1.844s-.709-1.809-2.2-1.809H170.66v3.653Zm-2.27,1.241v3.511H169.1V175.8h3.972c2.341,0,3.546,1.064,3.546,3.085a2.742,2.742,0,0,1-2.234,2.944l2.412,3.653h-1.773l-2.27-3.511h-2.128Z" transform="translate(-111.043 -113.453)" fill="#fff"/>
  <path id="Tracé_14" data-name="Tracé 14" d="M199.791,184.024c1.844,0,2.66-1.135,2.66-3.866,0-2.483-.745-3.546-2.66-3.546s-2.7,1.1-2.7,3.795c0,2.518.745,3.582,2.7,3.617m4.256-3.759c0,2.412-.674,5.071-4.327,5.071s-4.22-2.553-4.22-4.965.709-5.071,4.362-5.071,4.185,2.518,4.185,4.965" transform="translate(-128.39 -113.13)" fill="#fff"/>
  <path id="Tracé_15" data-name="Tracé 15" d="M233.295,185.446h-1.951l-1.951-8.086-1.951,8.086h-1.951L223.4,175.8h1.56l1.631,8.051,1.844-8.051h1.915l1.844,8.051,1.667-8.051h1.525Z" transform="translate(-146.765 -113.453)" fill="#fff"/>
  <path id="Tracé_16" data-name="Tracé 16" d="M277.51,177.041v8.405h-1.525v-8.405H272.9V175.8h7.731v1.241Z" transform="translate(-179.206 -113.453)" fill="#fff"/>
  <path id="Tracé_17" data-name="Tracé 17" d="M302.491,184.024c1.844,0,2.66-1.135,2.66-3.866,0-2.483-.745-3.546-2.66-3.546-1.88,0-2.7,1.1-2.7,3.83,0,2.483.745,3.582,2.7,3.582m4.256-3.759c0,2.412-.674,5.071-4.327,5.071s-4.22-2.553-4.22-4.965.709-5.071,4.362-5.071,4.185,2.518,4.185,4.965" transform="translate(-195.836 -113.13)" fill="#fff"/>
  <path id="Tracé_18" data-name="Tracé 18" d="M335.273,184.456a7.6,7.6,0,0,1-3.4.78c-3.369,0-4.469-2.092-4.469-4.965s1.1-5.072,4.433-5.072a8.1,8.1,0,0,1,3.156.638l-.248,1.206a6.849,6.849,0,0,0-2.66-.532c-2.163,0-3.121,1.312-3.121,3.795s.958,3.653,3.085,3.653a5.708,5.708,0,0,0,1.7-.284v-3.263h1.525Z" transform="translate(-214.998 -113.065)" fill="#fff"/>
  <path id="Tracé_19" data-name="Tracé 19" d="M358.225,179.843h4.752v1.241h-4.752v3.121h5.568v1.241H356.7V175.8h7.093v1.241h-5.568Z" transform="translate(-234.221 -113.453)" fill="#fff"/>
  <path id="Tracé_20" data-name="Tracé 20" d="M386.11,177.041v8.405h-1.525v-8.405H381.5V175.8h7.731v1.241Z" transform="translate(-250.521 -113.453)" fill="#fff"/>
  <path id="Tracé_21" data-name="Tracé 21" d="M416.46,185.446h-1.49V181.12h-4.646v4.327H408.8V175.8h1.525v4.078h4.646V175.8h1.49Z" transform="translate(-269.336 -113.453)" fill="#fff"/>
  <path id="Tracé_22" data-name="Tracé 22" d="M439.725,179.843h4.752v1.241h-4.752v3.121h5.568v1.241H438.2V175.8h7.093v1.241h-5.568Z" transform="translate(-288.309 -113.453)" fill="#fff"/>
  <path id="Tracé_23" data-name="Tracé 23" d="M467.859,180.694c1.49,0,2.2-.6,2.2-1.844s-.709-1.809-2.2-1.809h-2.234v3.653Zm-2.234,1.241v3.511H464.1V175.8h3.972c2.341,0,3.547,1.064,3.547,3.085a2.742,2.742,0,0,1-2.234,2.944l2.412,3.653h-1.773l-2.27-3.511h-2.128Z" transform="translate(-305.024 -113.453)" fill="#fff"/>
  <path id="Tracé_24" data-name="Tracé 24" d="M22.279,114.451,19.3,123.317h9.717s1.6-4.894,3.476-10.817Z" transform="translate(-12.455 -72.602)" fill="#fff"/>
  <path id="Tracé_25" data-name="Tracé 25" d="M45.659,47.178c1.88-5.958,3.511-11.242,3.688-12.2h.142c.177.958,1.667,5.674,3.44,11.171l9.788-1.383L55.306,23.7h-11.1L35.8,48.6Z" transform="translate(-23.104 -15.295)" fill="#fff"/>
  <path id="Tracé_26" data-name="Tracé 26" d="M90.2,102.58c2.128,6.455,4.078,12.342,4.327,13.051l6.809-11.1-1.348-3.83Z" transform="translate(-59.252 -64.987)" fill="#fff"/>
  <path id="Tracé_27" data-name="Tracé 27" d="M142.4,40.688,152.364,23.7h-11.1l-7.554,13.725L125.978,23.7H114.7l11.6,19.257Z" transform="translate(-75.593 -15.295)" fill="#fff"/>
  <path id="Tracé_28" data-name="Tracé 28" d="M122.778,90.263,112.6,106.86h11.526l8.015-14.292,8.015,14.292h12.306L139.837,87Z" transform="translate(-74.233 -56.146)" fill="#fff"/>
  <path id="Tracé_29" data-name="Tracé 29" d="M240.188,37.389V23.7H230.4V38.808Z" transform="translate(-151.329 -15.295)" fill="#fff"/>
  <path id="Tracé_30" data-name="Tracé 30" d="M230.4,75.68V98.342h9.788V73.8Z" transform="translate(-151.329 -47.627)" fill="#fff"/>
  <path id="Tracé_31" data-name="Tracé 31" d="M271.373,64.68,262.4,91.243h9.717s6.738-20.818,9.008-28.443Z" transform="translate(-172.513 -40.528)" fill="#fff"/>
  <path id="Tracé_32" data-name="Tracé 32" d="M309.677,33.1l-3.3-9.4h-11.1L291.2,35.723Z" transform="translate(-191.442 -15.295)" fill="#fff"/>
  <path id="Tracé_33" data-name="Tracé 33" d="M319.3,58.873c2.2,7.377,9.327,28.727,9.327,28.727h10.71l-10.71-30.5Z" transform="translate(-209.953 -36.85)" fill="#fff"/>
  <path id="Tracé_34" data-name="Tracé 34" d="M464.5,26.147V23.7h-9.4v3.795Z" transform="translate(-299.216 -15.295)" fill="#fff"/>
  <path id="Tracé_35" data-name="Tracé 35" d="M406.892,32.709v9.576c0,4.008.142,9.576.461,13.228-1.525-3.263-3.263-6.951-5.142-10.391L396.466,34.73,380.4,37.816V70.656h9.4v-16.1c0-4.008-.142-8.263-.319-11.42a100.944,100.944,0,0,0,4.4,9.292l9.966,18.229h12.484V30.9Z" transform="translate(-251.008 -19.941)" fill="#fff"/>
  <path id="Tracé_36" data-name="Tracé 36" d="M395.9,29.055,392.919,23.7H380.4v7.554Z" transform="translate(-250.001 -15.295)" fill="#fff"/>
</svg>
